<svg xmlns="http://www.w3.org/2000/svg" viewBox="0 0 147.14 165.11"><defs><style>.cls-1{fill:#ff0664;}.cls-2{fill:#279900;}.cls-3{fill:#801aff;}</style></defs><g id="Layer_2" data-name="Layer 2"><g id="Layer_1-2" data-name="Layer 1"><path class="cls-1" d="M32.78,84.35a82.12,82.12,0,0,1,40.79-40C60,38.45,45.34,37,32.13,41.36c-29.59,9.73-40.76,44.76-25,78.23C20.25,147.22,47.6,165.15,73.4,165.1a51.08,51.08,0,0,1-15.67-2.52C28.13,152.85,17,117.82,32.78,84.35"/><path class="cls-2" d="M115,41.36c-13.21-4.34-27.86-2.91-41.44,3a82.12,82.12,0,0,1,40.79,40c15.81,33.47,4.65,68.5-25,78.23a51.08,51.08,0,0,1-15.67,2.52c25.8.05,53.15-17.88,66.21-45.51,15.82-33.47,4.65-68.5-24.94-78.23"/><path class="cls-3" d="M114.36,84.35a82.12,82.12,0,0,0-40.79-40,82.12,82.12,0,0,0-40.79,40c-15.81,33.47-4.65,68.5,24.95,78.23A51.08,51.08,0,0,0,73.4,165.1h.34a51.08,51.08,0,0,0,15.67-2.52c29.6-9.73,40.76-44.76,25-78.23"/><path class="cls-2" d="M108.13,0c-7.52.31-29,3.71-32.58,32.4a2.51,2.51,0,0,0,2.78,2.78c28.69-3.56,32.1-25.06,32.4-32.57A2.5,2.5,0,0,0,108.13,0"/><path class="cls-2" d="M44.48,5.54a2.51,2.51,0,0,0-2.65,2.65c.38,6.68,3.64,23.83,26.78,27a2.53,2.53,0,0,0,2.84-2.84C68.31,9.18,51.16,5.92,44.48,5.54"/></g></g></svg>